<?xml version="1.0" encoding="utf-8"?>
<!-- Generator: Adobe Illustrator 21.0.0, SVG Export Plug-In . SVG Version: 6.00 Build 0)  -->
<svg version="1.1" id="Capa_1" xmlns="http://www.w3.org/2000/svg" xmlns:xlink="http://www.w3.org/1999/xlink" x="0px" y="0px"
	 viewBox="0 0 102 102" style="enable-background:new 0 0 102 102;" xml:space="preserve">
<style type="text/css">
	.st0{fill:url(#SVGID_1_);}
</style>
<linearGradient id="SVGID_1_" gradientUnits="userSpaceOnUse" x1="51.0245" y1="0.4346" x2="50.9473" y2="102.3885">
	<stop  offset="0" style="stop-color:#F08217"/>
	<stop  offset="1" style="stop-color:#203971"/>
</linearGradient>
<path class="st0" d="M92.9,10.9c-5.8-5.8-13.6-9.1-21.9-9.1c-7.5,0-14.5,2.6-20.1,7.5c-12.1-10.4-30.7-9.7-42,1.6
	C-2.5,22.3-2.9,40.8,7.4,53.1c-4,3.7-4.4,10-0.5,14c1.9,1.9,4.6,2.9,7.3,2.8c-0.3,5.6,4.5,10.4,10.1,10.1
	c-0.3,5.6,4.5,10.4,10.1,10.1c-0.5,9.1,10.8,13.2,16.8,6.8c1.6,1.5,3.4,2.9,6,3.2c5.8,0.8,11.1-4.2,10.8-10.1
	c5.6,0.2,10.4-4.5,10.1-10.1c1.5,0.1,3.1-0.2,4.5-0.9c3.6-1.7,5.8-5.2,5.5-9.1c2.5,0.1,4.9-0.7,6.9-2.4c5.6-4.9,3.4-10.8-0.2-14.8
	c4.7-5.6,7.3-12.5,7.3-19.9C102,24.5,98.8,16.8,92.9,10.9L92.9,10.9z M13.6,65c-4.1,0-6.2-5.1-3.3-8l8.6-8.6
	c4.3-4.3,10.9,2.4,6.6,6.6l-8.6,8.6C16.1,64.5,14.9,65,13.6,65L13.6,65z M23.7,75.1c-4.1,0-6.2-5.1-3.3-8l8.6-8.6
	c4.3-4.3,10.9,2.4,6.6,6.6L27,73.7C26.1,74.6,24.9,75.1,23.7,75.1L23.7,75.1z M30.5,83.8c-1.8-1.8-1.8-4.8,0-6.6l8.6-8.6
	c4.3-4.3,10.9,2.4,6.6,6.6l-8.6,8.6C35.3,85.6,32.3,85.6,30.5,83.8L30.5,83.8z M40.5,93.9c-1.8-1.8-1.8-4.8,0-6.6l8.6-8.6
	c4.3-4.3,10.9,2.4,6.6,6.6l-8.6,8.6C45.3,95.7,42.4,95.7,40.5,93.9L40.5,93.9z M63,91.1c-0.1,1.2-0.8,2.3-1.8,3.1
	c-2.3,1.8-4.8,0.9-6.7-0.9c2.1-2.1,4.9-4.3,6.4-6.9C62.2,87.7,63.3,89.2,63,91.1L63,91.1z M92.2,63.5c-1.3,1.3-4.6,2.4-6.9,0.2
	C79.9,58.3,74.4,52.8,69,47.4c-2.2-2.1-5.7,1.2-3.4,3.4c5.4,5.4,10.9,10.8,16.3,16.3c4.2,4.2-2.6,10.7-6.6,6.6
	c-5.4-5.4-10.9-10.9-16.3-16.3c-2.1-2.1-5.7,1.2-3.4,3.4c5.4,5.4,10.9,10.9,16.3,16.3c4.2,4.2-2.4,10.8-6.6,6.6l-3.2-3.2
	c-0.7-4.9-5.1-8.5-10-8.2c0.3-5.6-4.5-10.4-10.1-10.1c0.3-5.6-4.5-10.4-10.1-10.1c0.1-2.6-0.8-5.3-2.8-7.3c-3.7-3.7-9.8-3.7-13.5,0
	l-4.6,4.6c-7.3-11.3-8.7-25,1.5-35.2c9.4-9.4,24.8-10.1,35-1.6L33.3,26.9c-8.7,8.7,4.8,22.2,13.5,13.5L61,26.2l11.5,11.5
	c2.1,2.2,5.7-1.2,3.4-3.4c0,0-11-11.5-13.4-13.4c-1-0.8-2.4-0.7-3.2,0.2L43.3,36.9c-4.3,4.3-10.9-2.4-6.6-6.6l15.9-15.9
	c4.9-4.9,11.5-7.6,18.4-7.6c7,0,13.5,2.7,18.4,7.6c4.9,4.9,7.6,11.5,7.6,18.4c0,6.1-2.1,11.9-5.9,16.5l-6.1-6
	c-2.1-2.1-5.7,1.2-3.4,3.4c2.2,2.1,8.8,8.4,8.8,8.4C92.2,57,95.5,60.4,92.2,63.5L92.2,63.5z M92.2,63.5"/>
</svg>
