<?xml version="1.0" encoding="utf-8"?>
<!-- Generator: Adobe Illustrator 21.0.0, SVG Export Plug-In . SVG Version: 6.00 Build 0)  -->
<svg version="1.1" id="Capa_1" xmlns="http://www.w3.org/2000/svg" xmlns:xlink="http://www.w3.org/1999/xlink" x="0px" y="0px"
	 viewBox="0 0 102 102" style="enable-background:new 0 0 102 102;" xml:space="preserve">
<style type="text/css">
	.st0{fill:url(#SVGID_1_);}
	.st1{fill:url(#SVGID_2_);}
	.st2{fill:url(#SVGID_3_);}
	.st3{fill:url(#SVGID_4_);}
</style>
<g>
	<linearGradient id="SVGID_1_" gradientUnits="userSpaceOnUse" x1="51" y1="0.195" x2="51" y2="102.195">
		<stop  offset="0" style="stop-color:#F08217"/>
		<stop  offset="1" style="stop-color:#203971"/>
	</linearGradient>
	<path class="st0" d="M97.3,29.3C97,23,93.2,17.5,87.5,14.9L78,10.5c-1-0.5-2.3,0-2.8,1c-0.5,1,0,2.3,1,2.8l9.5,4.4
		c4.3,2,7.1,6.2,7.4,10.9c0.5,9.8,0.2,27.9-8.1,40.2c-7.7,11.2-18.9,20.4-27,26.1c-4.2,2.9-9.8,2.9-14,0c-8.1-5.7-19.3-14.9-27-26.1
		C8.7,57.5,8.3,39.3,8.9,29.5c0.3-4.7,3.1-8.9,7.4-10.9L43.5,6.1c4.8-2.2,10.3-2.2,15.1,0l12.4,5.7c1,0.5,2.3,0,2.8-1
		c0.2-0.5,0.3-1.1,0.1-1.6c-0.2-0.5-0.6-0.9-1.1-1.2L60.3,2.2c-5.9-2.7-12.7-2.7-18.6,0L14.5,14.9C8.8,17.5,5,23,4.7,29.3
		c-0.3,5-0.4,12.6,0.8,20.5c1.4,9,4.1,16.4,8,22.2c8,11.7,19.7,21.2,28,27.2c2.8,1.9,6,3,9.4,3c3.4,0,6.6-1,9.4-3
		c8.4-5.9,20-15.4,28-27.2c4-5.8,6.7-13.3,8-22.2C97.7,41.9,97.6,34.3,97.3,29.3z"/>
	<linearGradient id="SVGID_2_" gradientUnits="userSpaceOnUse" x1="51" y1="8.9976" x2="51" y2="93.4038">
		<stop  offset="0" style="stop-color:#F08217"/>
		<stop  offset="1" style="stop-color:#203971"/>
	</linearGradient>
	<path class="st1" d="M30.6,78.7c4.6,4.6,10,9.1,16,13.3c1.3,0.9,2.8,1.4,4.3,1.4c1.6,0,3.1-0.5,4.3-1.4
		c7.8-5.5,18.6-14.3,25.9-24.9C88.8,56,89,39,88.5,29.8c-0.2-3-2-5.7-4.7-7L56.6,10.2C54.8,9.4,52.9,9,51,9c-1.9,0-3.8,0.4-5.6,1.2
		L18.2,22.8c-2.8,1.3-4.6,3.9-4.7,7c-0.2,4.3-0.3,10.9,0.6,17.8c1.1,8,3.4,14.6,6.7,19.5c1.6,2.3,3.3,4.6,5.3,6.9
		c0.4,0.4,0.9,0.7,1.4,0.7c0.6,0,1.1-0.1,1.5-0.5c0.4-0.4,0.7-0.9,0.7-1.4c0-0.6-0.1-1.1-0.5-1.5c-1.9-2.2-3.6-4.3-5-6.5
		c-2.9-4.3-7.7-14.6-6.6-34.7c0.1-1.5,1-2.8,2.3-3.4L47.2,14c1.2-0.6,2.5-0.8,3.8-0.8c1.3,0,2.6,0.3,3.8,0.8L82,26.6
		c1.3,0.6,2.2,1.9,2.3,3.4c1.1,20.1-3.7,30.4-6.6,34.7c-6.9,10.1-17.3,18.6-24.8,23.9c-1.1,0.8-2.7,0.8-3.8,0
		c-5.8-4.1-11-8.4-15.5-12.9c-0.8-0.8-2.2-0.8-3,0C29.8,76.6,29.8,77.9,30.6,78.7z"/>
	<linearGradient id="SVGID_3_" gradientUnits="userSpaceOnUse" x1="51" y1="26.7706" x2="51" y2="68.5918">
		<stop  offset="0" style="stop-color:#F08217"/>
		<stop  offset="1" style="stop-color:#203971"/>
	</linearGradient>
	<path class="st2" d="M51,68.6c11.5,0,20.9-9.4,20.9-20.9c0-11.5-9.4-20.9-20.9-20.9c-11.5,0-20.9,9.4-20.9,20.9
		C30.1,59.2,39.5,68.6,51,68.6z M51,31.1c9.2,0,16.6,7.5,16.6,16.6c0,9.2-7.5,16.6-16.6,16.6c-9.2,0-16.6-7.5-16.6-16.6
		C34.4,38.5,41.8,31.1,51,31.1z"/>
	<linearGradient id="SVGID_4_" gradientUnits="userSpaceOnUse" x1="51" y1="38.5745" x2="51" y2="59.253">
		<stop  offset="0" style="stop-color:#F08217"/>
		<stop  offset="1" style="stop-color:#203971"/>
	</linearGradient>
	<path class="st3" d="M39.7,52.2l5.3,5.5c0.9,0.9,2.2,1.5,3.5,1.5l0,0l0.1,0c1.4,0,2.7-0.6,3.6-1.6l10.1-10.6
		c1.4-1.4,2.5-4.5-0.2-7.1c-0.9-0.9-2.2-1.4-3.5-1.4c-1.4,0-2.7,0.6-3.6,1.6l-6.4,6.8l-1.7-1.7c-1.9-2-5.1-2-7.1-0.1
		c-1,0.9-1.5,2.2-1.5,3.5C38.2,50,38.7,51.3,39.7,52.2z M42.7,48.1c0.2-0.2,0.4-0.2,0.5-0.2c0.3,0,0.6,0.2,0.7,0.3l3.2,3.3
		c0.4,0.4,0.9,0.6,1.5,0.6c0.6,0,1.1-0.2,1.5-0.7l7.9-8.3c0.2-0.2,0.4-0.3,0.6-0.3c0,0,0,0,0,0c0.2,0,0.4,0.1,0.6,0.2
		c0.6,0.6,0.2,1.1,0,1.2L49.2,54.8c-0.2,0.2-0.4,0.3-0.6,0.3c-0.2,0-0.5-0.1-0.6-0.3l-5.3-5.5C42.7,49.3,42.1,48.7,42.7,48.1z"/>
</g>
</svg>
