<?xml version="1.0" encoding="utf-8"?>
<!-- Generator: Adobe Illustrator 21.0.0, SVG Export Plug-In . SVG Version: 6.00 Build 0)  -->
<svg version="1.1" id="Capa_1" xmlns="http://www.w3.org/2000/svg" xmlns:xlink="http://www.w3.org/1999/xlink" x="0px" y="0px"
	 viewBox="0 0 102 102" style="enable-background:new 0 0 102 102;" xml:space="preserve">
<style type="text/css">
	.st0{fill:url(#SVGID_1_);}
</style>
<linearGradient id="SVGID_1_" gradientUnits="userSpaceOnUse" x1="51" y1="0.4457" x2="51" y2="102.1081">
	<stop  offset="0" style="stop-color:#F08217"/>
	<stop  offset="1" style="stop-color:#203971"/>
</linearGradient>
<path class="st0" d="M75.5,33.2c1.3,0.4,2.7-0.3,3.1-1.6l0.9-2.8c4.7-1.4,8.3-4.9,9.7-9.4c1.4-4.8,0.2-9.9-3.3-13.8
	c-0.6-0.7-1.5-0.9-2.3-0.8c-0.9,0.2-1.5,0.8-1.8,1.6l-3.2,9.6l-3.9,0.8l-2.6-3l3.4-10.3c0.3-0.8,0.1-1.6-0.4-2.3
	c-0.5-0.7-1.3-1-2.1-0.9c-5.9,0.4-10.7,4-12.7,9.2c-1.9,5-0.7,10.6,3.1,14.7l-2.3,6.8c-11.3,0.4-15.5,3.2-19.2,5.7
	c-2.5,1.7-4.9,3.3-9.5,4.1c-0.7-1.8-2.5-3-4.5-3H17.1c-2.7,0-4.9,2.2-4.9,4.9v25.8c0,2.7,2.2,4.9,4.9,4.9h10.9c2.1,0,4-1.4,4.7-3.4
	c2.4,0.2,4,0.7,5.7,1.3c2.1,0.7,4.4,1.4,8.7,1.8c-5.2,1-9.5,4.5-11.1,9.4C34.3,87.6,35.5,93,39,96.9c0.6,0.7,1.5,0.9,2.3,0.8
	c0.9-0.2,1.5-0.8,1.8-1.6l3.2-9.6l3.9-0.8l2.6,3l-3.4,10.3c-0.3,0.8-0.1,1.6,0.4,2.3c0.5,0.6,1.2,1,1.9,1c0.1,0,0.1,0,0.2,0
	c5.6-0.4,10.2-3.6,12.4-8.5c2-4.7,1.4-9.9-1.8-14.1l2-6h6.9c3.5,0,6.3-2.8,6.3-6.3c0-0.8-0.1-1.5-0.4-2.2c1.3-0.7,2.3-1.9,2.8-3.3
	c0.5-1.4,0.5-2.9,0-4.3c1.3-0.7,2.3-1.9,2.8-3.3c0.5-1.4,0.5-2.9,0-4.3c1.9-1.1,3.1-3.2,3.1-5.4c0-3.5-2.8-6.3-6.3-6.3h-3.2l0.5-1.5
	C77.5,35.1,76.8,33.7,75.5,33.2c-0.6-0.1-1.3-0.1-1.9,0.2c-0.6,0.3-1,0.8-1.2,1.4l-1,3.1h-7.3c0.8-2.5,2.6-7.8,3.5-10.4
	c2.1,1.1,4.3,1.7,6.6,1.9L74,30.1C73.5,31.4,74.2,32.8,75.5,33.2z M58.7,41.8c0.5,0.6,1.2,1,2,1h19.1c0.8,0,1.4,0.6,1.4,1.4
	c0,0.8-0.6,1.4-1.4,1.4H62.2c-1.4,0-2.5,1.1-2.5,2.5s1.1,2.5,2.5,2.5H77c0.8,0,1.4,0.6,1.4,1.4c0,0.8-0.6,1.4-1.4,1.4H62.2
	c-1.4,0-2.5,1.1-2.5,2.5c0,1.4,1.1,2.5,2.5,2.5h12.1c0.8,0,1.4,0.6,1.4,1.4c0,0.8-0.6,1.4-1.4,1.4H62.2c-1.4,0-2.5,1.1-2.5,2.5
	s1.1,2.5,2.5,2.5h9.4c0.8,0,1.4,0.6,1.4,1.4s-0.6,1.4-1.5,1.4c-17.7,0-17.8,0-17.8,0c-0.3,0-8.1,0.6-14.6-2c0,0-2.6-0.9-6.2-1.3
	V51.4c0-1-0.6-1.9-1.4-2.2c0.8-0.4,1.4-1.2,1.4-2.2v-1c5.8-0.8,8.7-2.8,11.5-4.7c3.2-2.2,6.6-4.5,15.1-5l-1.2,3.4
	C58.1,40.4,58.2,41.2,58.7,41.8z M27.9,68.6l-10.9,0l0-25.8l10.9,0v4c0,1,0.6,1.9,1.4,2.2c-0.8,0.4-1.4,1.2-1.4,2.2L27.9,68.6z
	 M58,88.8c0.3-0.8,0.1-1.8-0.5-2.4L53,81.3c-0.5-0.5-1.1-0.8-1.8-0.8c-0.2,0-0.3,0-0.5,0L44,81.9c-0.9,0.2-1.6,0.8-1.8,1.6l-1.9,5.7
	c-0.6-2.7,0-5.4,1.9-7.7c2.1-2.5,6.2-4.6,11.2-2.9c5.4,1.8,8.5,7.3,6.8,12.3c-0.8,2.2-2.4,4.1-4.6,5.2L58,88.8z M53.5,73.5
	c1.2,0,3.1,0,5.9,0l-0.8,2.3C57.1,74.7,55.4,74,53.5,73.5z M67,13.7c-0.3,0.8-0.1,1.8,0.5,2.4l4.5,5.1c0.6,0.7,1.5,1,2.3,0.8
	l6.7-1.4c0.9-0.2,1.6-0.8,1.8-1.6l1.9-5.6c0.4,1.6,0.3,3.2-0.2,4.8c-1.2,3.6-4.3,5.9-8.3,6.3c-4.4,0.4-8.6-1.8-10.6-5.6
	c-1.4-2.5-1.5-5.4-0.5-7.9c0.8-2,2.4-3.6,4.3-4.6L67,13.7z"/>
</svg>
