<?xml version="1.0" encoding="utf-8"?>
<!-- Generator: Adobe Illustrator 21.0.0, SVG Export Plug-In . SVG Version: 6.00 Build 0)  -->
<svg version="1.1" id="Capa_1" xmlns="http://www.w3.org/2000/svg" xmlns:xlink="http://www.w3.org/1999/xlink" x="0px" y="0px"
	 viewBox="0 0 102 102" style="enable-background:new 0 0 102 102;" xml:space="preserve">
<style type="text/css">
	.st0{fill:#5F4C72;}
	.st1{fill:url(#SVGID_1_);}
	.st2{fill:#4D4C73;}
</style>
<g>
	<rect x="22.6" y="75.9" class="st0" width="16.9" height="5"/>
	<linearGradient id="SVGID_1_" gradientUnits="userSpaceOnUse" x1="51.0006" y1="3.142578e-02" x2="51.0006" y2="101.9684">
		<stop  offset="0" style="stop-color:#F08217"/>
		<stop  offset="1" style="stop-color:#203971"/>
	</linearGradient>
	<path class="st1" d="M90.6,92.3l-0.4-1.8c-1.5-5.8-1.5-12,0-17.8l0.3-1.4h0.2V2.6c0-1.4-1.2-2.6-2.6-2.6H25.2
		c-7.7,0-13.9,6.2-13.9,13.9V82l0,0.1c0.4,7.6,6.7,13.4,14.2,13.4c0.1,0,0.1,0,0.2,0h14.6v6.4h5.2V89.1h28.6V102h5.2v-6.4h8.7
		c0.8,0,1.6-0.4,2.1-1C90.6,93.9,90.8,93.1,90.6,92.3z M84.8,90.3h-5.4v-3.8c0-0.9-0.5-1.8-1.2-2.2H83V79h-6.7
		c0.2-2.1,0.6-4.1,1.4-6.1h7.1C83.6,78.7,83.6,84.6,84.8,90.3z M44.2,68.4L23.8,50.6c0.7-0.9,1.8-1.6,3-1.7c1.3-0.2,2.6,0.2,3.6,1
		l7,5.8c1.5,1.2,3.6,1.5,5.3,0.7c1.7-0.8,2.9-2.6,2.9-4.5V17.2c0-1.2,1-2.2,2.2-2.2c1.2,0,2.2,1,2.2,2.2v23.6h5.2V13.9
		c0-1.2,1-2.2,2.2-2.2s2.2,1,2.2,2.2v26.8h5.2V17.2c0-1.2,1-2.2,2.2-2.2s2.2,1,2.2,2.2v23.6h5.2V25.2c0-1.2,1-2.2,2.2-2.2
		s2.2,1,2.2,2.2v27.9c0,4.5-1.3,8.9-3.6,12.7c-2.9,4.6-4.4,10-4.4,15.4v2.7H48.8v-5.4C48.8,74.6,47.1,70.9,44.2,68.4z M25.2,5.3
		h60.3v62.5h-5.2c2.6-4.5,4-9.5,4-14.7V25.2c0-2.7-1.4-5.1-3.7-6.4c-1.8-1-4-1.3-5.9-0.7v-1c0-2.8-1.5-5.3-3.9-6.6
		c-2.1-1.1-4.5-1.2-6.6-0.2c-1.3-2.4-3.8-3.9-6.6-3.9s-5.3,1.5-6.6,3.9c-2.1-1-4.5-0.9-6.6,0.2c-2.4,1.3-3.9,3.8-3.9,6.6l0,34.2
		l-6.6-5.5c-2.1-1.8-4.9-2.6-7.7-2.2c-2.7,0.4-5.2,2-6.7,4.3l-1.1,1.6c-0.7,1.1-0.5,2.6,0.5,3.4l16.9,14.8H25.2c0,0,0,0,0,0
		c-3.1,0-6.2,1.1-8.6,3V13.9C16.5,9.2,20.4,5.3,25.2,5.3z M19,75.6c1.6-1.7,3.9-2.6,6.2-2.6c0,0,0,0,0,0h16.2
		c1.4,1.5,2.1,3.4,2.1,5.4v5.4h-0.6c-1.4,0-2.6,1.2-2.6,2.6v3.8H25.7c-4.8,0.1-8.8-3.6-9.1-8.4C16.5,79.6,17.4,77.3,19,75.6z"/>
	<rect x="25.6" y="81.9" class="st2" width="13.9" height="5"/>
</g>
</svg>
