<?xml version="1.0" encoding="utf-8"?>
<!-- Generator: Adobe Illustrator 21.0.0, SVG Export Plug-In . SVG Version: 6.00 Build 0)  -->
<svg version="1.1" id="Capa_1" xmlns="http://www.w3.org/2000/svg" xmlns:xlink="http://www.w3.org/1999/xlink" x="0px" y="0px"
	 viewBox="0 0 102 102" style="enable-background:new 0 0 102 102;" xml:space="preserve">
<style type="text/css">
	.st0{fill:url(#SVGID_1_);}
	.st1{fill:none;}
</style>
<linearGradient id="SVGID_1_" gradientUnits="userSpaceOnUse" x1="51" y1="4.3786" x2="51" y2="97.6214">
	<stop  offset="0" style="stop-color:#F08217"/>
	<stop  offset="1" style="stop-color:#203971"/>
</linearGradient>
<path class="st0" d="M97.2,50.8h-0.3l-9.6-20.2c1.1-1.2,1.7-2.7,1.7-4.2c0-3.4-2.8-6.2-6.2-6.2c-2.3,0-4.5,1.3-5.5,3.4
	c-1.5-0.2-3-0.5-4.4-0.9l-13.9-3.8c-0.1-2.3-1.1-4.4-2.9-5.9V8.6c0-2.3-1.9-4.3-4.3-4.3H50c-2.3,0-4.3,1.9-4.3,4.3v4.3
	c-1.8,1.5-2.8,3.6-2.9,5.9l-13.8,3.8c-1.4,0.4-2.9,0.7-4.4,0.9c-1.1-2.1-3.2-3.4-5.5-3.4c-3.4,0-6.2,2.8-6.2,6.2
	c0,1.6,0.6,3.1,1.7,4.2L5.1,50.8H4.8c-2.6,0-4.7,2.1-4.7,4.7v1c0,2.4,1.8,4.4,4.1,4.7c1.7,6.4,7.8,11.1,14.5,11.1
	c6.6,0,12.7-4.6,14.4-11h0.6c2.6,0,4.7-2.1,4.7-4.7v-1c0-2.6-2.1-4.7-4.7-4.7h-0.3l-9.6-20.2c0.7-0.7,1.2-1.6,1.4-2.5
	c1.8-0.2,3.5-0.6,5.2-1.1l13.7-3.8c0.5,0.7,1,1.4,1.7,1.9v56.1h-6c-2.6,0-4.7,2.1-4.7,4.7v1.4c-1.9,0.6-3.2,2.5-3.2,4.5v1
	c0,2.6,2.1,4.7,4.7,4.7h10.9c1.2,0,2.3-1,2.3-2.3c0-1.2-1-2.3-2.3-2.3H36.5c-0.1,0-0.2-0.1-0.2-0.2v-1c0-0.1,0.1-0.2,0.2-0.2h28.8
	c0.1,0,0.2,0.1,0.2,0.2v1c0,0.1-0.1,0.2-0.2,0.2h-11c-1.2,0-2.3,1-2.3,2.3c0,1.2,1,2.3,2.3,2.3h11c2.6,0,4.7-2.1,4.7-4.7v-1
	c0-2.1-1.4-3.9-3.3-4.5V86c0-2.6-2.1-4.7-4.7-4.7h-6V59.4c0-1.2-1-2.3-2.3-2.3c-1.2,0-2.3,1-2.3,2.3v21.9h-1.2V27c0.4,0,0.8,0,1.2,0
	v25.6c0,1.2,1,2.3,2.3,2.3c1.2,0,2.3-1,2.3-2.3V25.2c0.7-0.6,1.2-1.2,1.7-2L71.6,27c1.7,0.5,3.4,0.8,5.2,1.1
	c0.3,0.9,0.8,1.8,1.4,2.5l-9.6,20.2h-0.3c-2.6,0-4.7,2.1-4.7,4.7v1c0,2.6,2.1,4.7,4.7,4.7h0.6c1.8,6.4,7.8,11,14.4,11
	c6.7,0,12.7-4.6,14.5-11.1c2.3-0.3,4.1-2.3,4.1-4.7v-1C102,52.9,99.8,50.8,97.2,50.8z M19.2,24.6c0.9,0,1.7,0.8,1.7,1.7
	c0,0.9-0.8,1.7-1.7,1.7c-0.9,0-1.7-0.8-1.7-1.7C17.5,25.4,18.3,24.6,19.2,24.6z M18.6,67.7c-4.2,0-8.1-2.6-9.7-6.5h19.4
	C26.7,65.1,22.8,67.7,18.6,67.7z M33.6,55.3c0.1,0,0.2,0.1,0.2,0.2v1c0,0.1-0.1,0.2-0.2,0.2H4.8c-0.1,0-0.2-0.1-0.2-0.2v-1
	c0-0.1,0.1-0.2,0.2-0.2H33.6z M28.3,50.8H10.1l8.7-18.3c0.3,0,0.6,0,0.9,0L28.3,50.8z M50.3,8.9h1.2v2.2c-0.2,0-0.4,0-0.6,0
	c-0.2,0-0.4,0-0.6,0V8.9z M62,85.8c0.1,0,0.2,0.1,0.2,0.2v1.2H39.6V86c0-0.1,0.1-0.2,0.2-0.2H62z M52.6,22.1
	c-0.5,0.3-1.1,0.5-1.7,0.5c-1.9,0-3.5-1.6-3.5-3.5c0-1.9,1.6-3.5,3.5-3.5c2,0,3,1.4,3.3,2.6C54.6,19.4,54.3,21.1,52.6,22.1z
	 M82.8,24.6c0.9,0,1.7,0.8,1.7,1.7c0,0.9-0.8,1.7-1.7,1.7c-0.9,0-1.7-0.8-1.7-1.7C81.1,25.4,81.9,24.6,82.8,24.6z M82.4,32.5
	c0.3,0,0.6,0,0.9,0l8.7,18.3H73.7L82.4,32.5z M83.4,67.7c-4.2,0-8.1-2.6-9.7-6.5h19.4C91.5,65.1,87.6,67.7,83.4,67.7z M97.4,56.5
	c0,0.1-0.1,0.2-0.2,0.2H68.4c-0.1,0-0.2-0.1-0.2-0.2v-1c0-0.1,0.1-0.2,0.2-0.2h28.8c0.1,0,0.2,0.1,0.2,0.2V56.5z"/>
<g>
	<rect x="92.4" y="1.6" class="st1" width="110.9" height="101.3"/>
</g>
</svg>
