<?xml version="1.0" encoding="utf-8"?>
<!-- Generator: Adobe Illustrator 21.0.0, SVG Export Plug-In . SVG Version: 6.00 Build 0)  -->
<svg version="1.1" id="Capa_1" xmlns="http://www.w3.org/2000/svg" xmlns:xlink="http://www.w3.org/1999/xlink" x="0px" y="0px"
	 viewBox="0 0 102 102" style="enable-background:new 0 0 102 102;" xml:space="preserve">
<style type="text/css">
	.st0{fill:url(#SVGID_1_);}
	.st1{fill:url(#SVGID_2_);}
	.st2{fill:url(#SVGID_3_);}
</style>
<g>
	<linearGradient id="SVGID_1_" gradientUnits="userSpaceOnUse" x1="51.1809" y1="0.445" x2="51.1809" y2="101.4824">
		<stop  offset="0" style="stop-color:#F08217"/>
		<stop  offset="1" style="stop-color:#203971"/>
	</linearGradient>
	<path class="st0" d="M101.6,43.1c-0.5-0.5-1.1-0.7-1.8-0.5L82.6,46c-0.7,0.1-1.3,0.7-1.5,1.4c-0.2,0.7,0,1.5,0.5,2l2.3,2.3
		l-9.1,9.1l-7.1-7.1c-0.4-0.4-0.9-0.6-1.4-0.6c-0.5,0-1,0.2-1.4,0.6l-8.7,8.7l3.2-11.7c0.8-2.8,0.2-5.8-1.6-8.2
		c-1.1-1.4-2.5-2.5-4.2-3.1l2.6-7.4c0.7,0.1,1.4,0.1,2.1,0.1c5.8,0,11.4-2,15.8-5.7l0.5-0.4c2.3-1.9,2.7-5.3,0.9-7.7
		c-0.9-1.2-2.3-2-3.8-2.1c-1.5-0.2-3,0.3-4.1,1.2l-0.5,0.4c-0.8,0.7-1.7,1.2-2.6,1.7c-3.1,1.5-6.9,0.9-9.5-1.7
		c3.7-1.1,6.4-4.6,6.4-8.7c0-5-4.1-9.1-9.1-9.1s-9.1,4.1-9.1,9.1c0,2,0.6,3.8,1.7,5.3c-2.1,0.4-3.9,1.5-5.4,3
		c-0.1,0.1-0.2,0.2-0.2,0.2c-3.5,4.3-8.2,7.4-13.5,8.9c-1.4,0.4-2.6,1.4-3.3,2.6l-4.1-4.1c-1.8-1.8-4.7-1.8-6.5,0l-5.3,5.3L1.5,36
		c-0.9,0.9-1.3,2-1.3,3.2c0,1.2,0.5,2.4,1.3,3.2l14.7,14.7c0.9,0.9,2,1.3,3.2,1.3c1.2,0,2.4-0.5,3.2-1.3l5.5-5.5l-2.6,6.9
		c-0.4,1,0.1,2.2,1.2,2.6c0.2,0.1,0.5,0.1,0.7,0.1c0.8,0,1.6-0.5,1.9-1.3l6.5-17.1h14.6c1.7,0,3.2,0.8,4.3,2.1c1,1.3,1.3,3,0.9,4.7
		l-4.5,16.3c-0.2,0.7-0.9,1.2-1.6,1.2c-0.7,0-1.1-0.4-1.3-0.6c-0.2-0.2-0.5-0.7-0.4-1.4l2.4-15.1c0.1-0.6-0.1-1.2-0.5-1.6
		c-0.4-0.4-0.9-0.7-1.5-0.7h-4.7c-0.8,0-1.4,0.4-1.8,1.1c-0.1,0.2-11.7,23.1-15.6,30.8c-0.4,0.8-1.2,1.2-2.1,1.1l-0.1,0
		c-0.6-0.1-1.1-0.4-1.4-0.9s-0.4-1.1-0.1-1.7l1.2-3.2c0.4-1-0.1-2.2-1.2-2.6c-1-0.4-2.2,0.1-2.6,1.2l-1.2,3.2
		c-0.6,1.7-0.5,3.6,0.4,5.1c0.9,1.6,2.5,2.6,4.3,2.8l0.1,0c0.3,0,0.5,0.1,0.8,0.1c2.3,0,4.4-1.3,5.4-3.3c3.4-6.7,12.7-25,15-29.7H46
		l-2,12.8c-0.3,1.6,0.2,3.3,1.3,4.6c0.7,0.8,1.6,1.4,2.6,1.7L25.6,93.1C25.2,93.5,25,94,25,94.5c0,0.5,0.2,1,0.6,1.4l5.7,5.7
		c0.4,0.4,0.9,0.6,1.4,0.6c0.5,0,1-0.2,1.4-0.6l11-11c0.8-0.8,0.8-2,0-2.8c-0.8-0.8-2-0.8-2.8,0l-9.6,9.6l-2.9-2.9L66.3,58l7.1,7.1
		c0.4,0.4,0.9,0.6,1.4,0.6c0.5,0,1-0.2,1.4-0.6l11.9-11.9c0.8-0.8,0.8-2,0-2.8L87,49.2L97.6,47l-2.1,10.6L93.9,56
		c-0.8-0.8-2-0.8-2.8,0L74.8,72.2l-7.1-7.1c-0.8-0.8-2-0.8-2.8,0L53.6,76.5c-0.8,0.8-0.8,2,0,2.8c0.8,0.8,2,0.8,2.8,0l10-10l7.1,7.1
		c0.8,0.8,2,0.8,2.8,0l16.2-16.2l2.9,2.9c0.5,0.5,1.3,0.7,2,0.5c0.7-0.2,1.2-0.8,1.4-1.5l3.5-17.2C102.3,44.2,102.1,43.6,101.6,43.1
		z M52.5,4.2c2.8,0,5.1,2.3,5.1,5.1c0,2.8-2.3,5.1-5.1,5.1s-5.1-2.3-5.1-5.1C47.4,6.5,49.7,4.2,52.5,4.2z M19.9,54.4
		c-0.1,0.1-0.3,0.2-0.4,0.2c-0.1,0-0.3,0-0.4-0.2L4.3,39.7c-0.1-0.1-0.2-0.3-0.2-0.4c0-0.1,0-0.3,0.2-0.4l3.9-3.9l4.1,4.1
		c-0.3,0.6-0.5,1.3-0.5,2.1c0,1.3,0.5,2.5,1.4,3.3l0.6,0.6c0.9,0.9,2.1,1.4,3.3,1.4c0.7,0,1.4-0.2,2.1-0.5l4.6,4.6L19.9,54.4z
		 M15.9,41.1c0-0.1,0-0.3,0.2-0.5l1.1-1.1l1.7,1.7l-1.1,1.1c-0.2,0.2-0.4,0.2-0.5,0.2c-0.1,0-0.3,0-0.5-0.2l-0.6-0.6
		C15.9,41.4,15.9,41.2,15.9,41.1z M30.6,43.7l-3.9,3.9l-4.4-4.4l0.8-0.8c0.8-0.8,0.8-2,0-2.8l-4.5-4.5c-0.8-0.8-2-0.8-2.8,0L15,36
		l-3.9-3.9l3.9-3.9c0.1-0.1,0.3-0.2,0.4-0.2c0.2,0,0.3,0.1,0.4,0.2l7.3,7.3c0.3,0.5,0.7,0.9,1.2,1.2l6.3,6.3
		C30.8,43.1,30.8,43.5,30.6,43.7z M32.8,39.5l-2.4-2.4c1.2-0.4,2.3-0.8,3.4-1.3L32.8,39.5z M35.1,30.7c-2.2,1.2-4.6,2.2-7.1,2.9
		c0,0-0.1,0-0.1,0c-0.4,0.1-0.7,0-1-0.2l-0.6-0.6c-0.1-0.1-0.1-0.2-0.1-0.3c-0.2-0.8,0.2-1.7,1.1-1.9c3.3-0.9,6.3-2.4,9.1-4.3
		L35.1,30.7z M53.2,29.2l-3.4,9.7h-1.4H37.1l4.1-15.7c0.7-2.8,3.3-4.8,6.2-4.8c1.8,0,3.5,0.7,4.7,2c3.7,4,9.7,5.2,14.4,2.8
		c1.2-0.6,2.3-1.3,3.3-2.2l0.5-0.4c0.3-0.3,0.7-0.4,1.2-0.3c0.4,0,0.8,0.3,1.1,0.6c0.5,0.6,0.4,1.6-0.3,2.2l-0.5,0.4
		c-3.7,3.1-8.4,4.8-13.2,4.8c-1,0-2.1-0.1-3.2-0.2C54.4,27.8,53.5,28.3,53.2,29.2z"/>
	<linearGradient id="SVGID_2_" gradientUnits="userSpaceOnUse" x1="49.3831" y1="0.445" x2="49.3831" y2="101.4824">
		<stop  offset="0" style="stop-color:#F08217"/>
		<stop  offset="1" style="stop-color:#203971"/>
	</linearGradient>
	<path class="st1" d="M49.4,81.6c-0.5,0-1,0.2-1.4,0.6c-0.4,0.4-0.6,0.9-0.6,1.4c0,0.5,0.2,1,0.6,1.4c0.4,0.4,0.9,0.6,1.4,0.6
		c0.5,0,1-0.2,1.4-0.6c0.4-0.4,0.6-0.9,0.6-1.4c0-0.5-0.2-1-0.6-1.4C50.4,81.8,49.9,81.6,49.4,81.6z"/>
	<linearGradient id="SVGID_3_" gradientUnits="userSpaceOnUse" x1="24.6601" y1="0.445" x2="24.6601" y2="101.4824">
		<stop  offset="0" style="stop-color:#F08217"/>
		<stop  offset="1" style="stop-color:#203971"/>
	</linearGradient>
	<path class="st2" d="M24.7,68.7c0.5,0,1-0.2,1.4-0.6c0.4-0.4,0.6-0.9,0.6-1.4c0-0.5-0.2-1-0.6-1.4c-0.4-0.4-0.9-0.6-1.4-0.6
		c-0.5,0-1,0.2-1.4,0.6c-0.4,0.4-0.6,0.9-0.6,1.4c0,0.5,0.2,1,0.6,1.4C23.6,68.5,24.1,68.7,24.7,68.7z"/>
</g>
</svg>
