<?xml version="1.0" encoding="utf-8"?>
<!-- Generator: Adobe Illustrator 21.0.0, SVG Export Plug-In . SVG Version: 6.00 Build 0)  -->
<svg version="1.1" id="Capa_1" xmlns="http://www.w3.org/2000/svg" xmlns:xlink="http://www.w3.org/1999/xlink" x="0px" y="0px"
	 viewBox="0 0 102 102" style="enable-background:new 0 0 102 102;" xml:space="preserve">
<style type="text/css">
	.st0{fill:url(#SVGID_1_);}
	.st1{fill:url(#SVGID_2_);}
	.st2{fill:url(#SVGID_3_);}
	.st3{fill:url(#SVGID_4_);}
	.st4{fill:url(#SVGID_5_);}
	.st5{fill:url(#SVGID_6_);}
	.st6{fill:url(#SVGID_7_);}
	.st7{fill:url(#SVGID_8_);}
</style>
<g>
	<linearGradient id="SVGID_1_" gradientUnits="userSpaceOnUse" x1="76.6619" y1="1.945" x2="76.6619" y2="101.6791">
		<stop  offset="0" style="stop-color:#EF8117"/>
		<stop  offset="1" style="stop-color:#203971"/>
	</linearGradient>
	<path class="st0" d="M100.4,51.5c-0.9-1-2.3-1.5-3.6-1.5l-0.1,0c-2.6,0.1-4.8,1.9-5.4,4.4l-1.6,6.5c-1.4,5.9-5.4,10.9-10.9,13.6
		c-0.5,0.2-0.9,0.2-1.3-0.1C77.1,74,76.9,73.5,77,73l1.2-7.1c0.4-2.5-1.2-4.8-3.6-5.3c-1.9-0.4-3.8,0.4-4.8,2l-7.7,12
		c-1.3-0.6-3-0.4-4,0.7l-5.8,5.8c-0.8,0.8-0.8,2.2,0,3l16.9,16.9c0.4,0.4,0.9,0.6,1.5,0.6c0.6,0,1.1-0.2,1.5-0.6l5.8-5.8
		c1.1-1.1,1.3-2.9,0.6-4.2c1.7-1,3.3-2.1,4.9-3.2c0.4-0.3,0.7-0.8,0.8-1.4c0.1-0.6-0.1-1.1-0.4-1.6c-0.3-0.4-0.8-0.7-1.4-0.8
		c-0.6-0.1-1.1,0.1-1.6,0.4c-2.4,1.8-4.4,3-5.3,3.4L65.3,77.5l8.1-12.6c0.1-0.1,0.2-0.2,0.4-0.2c0.2,0,0.3,0.2,0.3,0.5l-1.2,7.1
		c-0.4,2.1,0.5,4.1,2.1,5.4c1.7,1.3,3.9,1.5,5.7,0.5C87.3,75,92.1,69,93.9,61.8l1.6-6.5c0.2-0.9,1.1-1.2,1.6-1.1
		c0.4,0.1,0.5,0.3,0.4,0.6c-1,9.8-5.3,19-12.3,26c-0.4,0.4-0.6,0.9-0.6,1.5c0,0.6,0.2,1.1,0.6,1.5c0.8,0.8,2.2,0.8,3,0
		c7.7-7.6,12.5-17.8,13.6-28.6C101.8,53.8,101.3,52.5,100.4,51.5z M60.6,78.8l13.9,13.9l-3.9,3.9L56.7,82.7L60.6,78.8z"/>
	<linearGradient id="SVGID_2_" gradientUnits="userSpaceOnUse" x1="51.0004" y1="1.945" x2="51.0004" y2="101.6791">
		<stop  offset="0" style="stop-color:#EF8117"/>
		<stop  offset="1" style="stop-color:#203971"/>
	</linearGradient>
	<path class="st1" d="M31.6,26.2l1.8,1l2.9,5l0,2.1c0,1.3,0.7,2.6,1.8,3.3l4.4,2.5c0.6,0.3,1.2,0.5,1.8,0.5c0.7,0,1.3-0.2,1.9-0.5
		l1.8-1.1h5.8l1.8,1.1c1.1,0.7,2.6,0.7,3.7,0l4.4-2.6c1.2-0.7,1.9-1.9,1.8-3.3l0-2.1l2.9-5l1.8-1c1.2-0.6,1.9-1.9,1.9-3.2v-5.1
		c0-1.3-0.7-2.6-1.9-3.2l-1.8-1l-0.1-0.2c-0.6-1-1.9-1.4-2.9-0.8c-0.5,0.3-0.8,0.7-1,1.3c-0.1,0.5-0.1,1.1,0.2,1.6l0.2,0.3
		c0.3,0.6,0.8,1.1,1.4,1.4l1.7,0.9v4.5l-1.7,0.9C65.8,24,65.3,24.4,65,25l-3.1,5.3c-0.3,0.6-0.5,1.2-0.5,1.9l0,1.9l-3.9,2.2l-1.6-1
		c-0.6-0.3-1.2-0.5-1.9-0.5H48c-0.7,0-1.3,0.2-1.9,0.5l-1.6,1l-3.9-2.2l0-1.9c0-0.7-0.2-1.3-0.5-1.9L37,25c-0.3-0.6-0.8-1.1-1.4-1.4
		L34,22.7v-4.5l1.7-0.9c0.6-0.3,1.1-0.8,1.4-1.4l3.1-5.3c0.3-0.6,0.5-1.2,0.5-1.9l0-1.9l3.9-2.2l1.6,1c0.6,0.3,1.2,0.5,1.9,0.5h6.1
		c0.7,0,1.3-0.2,1.9-0.5l1.6-1l3.9,2.2l0,1.9c0,0.6,0.1,1.1,0.4,1.6c0.5,1.1,1.8,1.5,2.8,1c1-0.5,1.5-1.7,1.1-2.7l0-2.1
		c0-1.3-0.7-2.6-1.8-3.3l-4.4-2.6c-1.2-0.7-2.6-0.7-3.7,0l-1.8,1.1h-5.8l-1.8-1.1c-1.1-0.7-2.6-0.7-3.7,0l-4.4,2.6
		C37,4,36.3,5.3,36.3,6.6l0,2.1l-2.9,5l-1.8,1c-1.2,0.6-1.9,1.9-1.9,3.2V23C29.7,24.4,30.5,25.6,31.6,26.2z"/>
	<linearGradient id="SVGID_3_" gradientUnits="userSpaceOnUse" x1="51.0006" y1="1.945" x2="51.0006" y2="101.6791">
		<stop  offset="0" style="stop-color:#EF8117"/>
		<stop  offset="1" style="stop-color:#203971"/>
	</linearGradient>
	<path class="st2" d="M41.5,20.5c0,5.2,4.3,9.5,9.5,9.5c5.2,0,9.5-4.3,9.5-9.5c0-5.2-4.3-9.5-9.5-9.5C45.8,11,41.5,15.2,41.5,20.5z
		 M45.7,20.5c0-2.9,2.4-5.3,5.3-5.3c2.9,0,5.3,2.4,5.3,5.3c0,2.9-2.4,5.3-5.3,5.3C48.1,25.8,45.7,23.4,45.7,20.5z"/>
	<linearGradient id="SVGID_4_" gradientUnits="userSpaceOnUse" x1="77.6786" y1="1.945" x2="77.6786" y2="101.6791">
		<stop  offset="0" style="stop-color:#EF8117"/>
		<stop  offset="1" style="stop-color:#203971"/>
	</linearGradient>
	<path class="st3" d="M77.7,49.9c4,0,7.2-3.3,7.2-7.2c0-4-3.3-7.2-7.2-7.2c-4,0-7.2,3.3-7.2,7.2C70.4,46.7,73.7,49.9,77.7,49.9z
		 M74.7,42.7c0-1.7,1.4-3,3-3s3,1.4,3,3c0,1.7-1.4,3-3,3S74.7,44.3,74.7,42.7z"/>
	<linearGradient id="SVGID_5_" gradientUnits="userSpaceOnUse" x1="77.6788" y1="1.945" x2="77.6788" y2="101.6791">
		<stop  offset="0" style="stop-color:#EF8117"/>
		<stop  offset="1" style="stop-color:#203971"/>
	</linearGradient>
	<path class="st4" d="M68.5,30.2c-1,0.6-1.6,1.7-1.6,2.8l0,1.3L65,37.5l-1.1,0.6c-1,0.6-1.6,1.6-1.6,2.8v3.5c0,1.2,0.6,2.2,1.6,2.8
		l1.1,0.6l1.8,3.2l0,1.3c0,1.2,0.6,2.2,1.6,2.8l3.1,1.8c1,0.6,2.3,0.6,3.2,0l1.1-0.6h3.7l1.1,0.6c0.5,0.3,1.1,0.5,1.6,0.5
		c0.6,0,1.1-0.1,1.6-0.4l3.1-1.8c1-0.6,1.6-1.7,1.6-2.8l0-1.3l1.8-3.2l1.1-0.6c1-0.6,1.6-1.6,1.6-2.8v-3.5c0-1.2-0.6-2.2-1.6-2.8
		l-1.1-0.6l-1.8-3.2l0-1.3c0-1.2-0.6-2.2-1.6-2.8l-3.1-1.8c-1-0.6-2.3-0.6-3.3,0l-1.1,0.6h-3.7l-1.1-0.6c-1-0.6-2.2-0.6-3.2,0
		L68.5,30.2z M71.1,33.6l2-1.2l0.8,0.5c0.5,0.3,1.1,0.5,1.6,0.5h4.2c0.6,0,1.1-0.2,1.6-0.5l0.8-0.5l2,1.2l0,0.9
		c0,0.6,0.1,1.2,0.4,1.7l2.1,3.7c0.3,0.5,0.7,0.9,1.2,1.2l0.8,0.5v2.3L88,44.3c-0.5,0.3-0.9,0.7-1.2,1.2l-2.1,3.7
		c-0.3,0.5-0.4,1.1-0.4,1.7l0,0.9l-2,1.2l-0.8-0.5c-0.5-0.3-1.1-0.5-1.6-0.5h-4.2c-0.6,0-1.1,0.2-1.6,0.5l-0.8,0.5l-2-1.2l0-0.9
		c0-0.6-0.1-1.2-0.4-1.7l-2.1-3.7c-0.3-0.5-0.7-0.9-1.2-1.2l-0.8-0.5v-2.3l0.8-0.5c0.5-0.3,0.9-0.7,1.2-1.2l2.1-3.7
		c0.3-0.5,0.4-1.1,0.4-1.7L71.1,33.6z"/>
	<linearGradient id="SVGID_6_" gradientUnits="userSpaceOnUse" x1="24.3224" y1="1.945" x2="24.3224" y2="101.6791">
		<stop  offset="0" style="stop-color:#EF8117"/>
		<stop  offset="1" style="stop-color:#203971"/>
	</linearGradient>
	<path class="st5" d="M24.3,49.9c4,0,7.2-3.3,7.2-7.2c0-4-3.3-7.2-7.2-7.2c-4,0-7.2,3.3-7.2,7.2C17.1,46.7,20.3,49.9,24.3,49.9z
		 M24.3,39.7c1.7,0,3,1.4,3,3c0,1.7-1.4,3-3,3c-1.7,0-3-1.4-3-3C21.3,41,22.7,39.7,24.3,39.7z"/>
	<linearGradient id="SVGID_7_" gradientUnits="userSpaceOnUse" x1="24.3222" y1="1.945" x2="24.3222" y2="101.6791">
		<stop  offset="0" style="stop-color:#EF8117"/>
		<stop  offset="1" style="stop-color:#203971"/>
	</linearGradient>
	<path class="st6" d="M10.6,47.2l1.1,0.6l1.8,3.2l0,1.3c0,1.2,0.6,2.2,1.6,2.8l3.1,1.8c0.5,0.3,1,0.4,1.6,0.4c0.6,0,1.1-0.2,1.6-0.5
		l1.1-0.6h3.7l1.1,0.6c1,0.6,2.3,0.6,3.3,0l3.1-1.8c1-0.6,1.6-1.7,1.6-2.8l0-1.3l1.8-3.2l1.1-0.6c1-0.6,1.6-1.6,1.6-2.8v-3.5
		c0-1.2-0.6-2.2-1.6-2.8L37,37.5l-1.8-3.2l0-1.3c0-1.2-0.6-2.2-1.6-2.8l-3.1-1.8c-1-0.6-2.3-0.6-3.2,0l-1.1,0.6h-3.7l-1.1-0.6
		c-1-0.6-2.2-0.6-3.2,0l-3.1,1.8c-1,0.6-1.6,1.7-1.6,2.8l0,1.3l-1.8,3.2l-1.1,0.6c-1,0.6-1.6,1.6-1.6,2.8v3.5
		C8.9,45.6,9.6,46.7,10.6,47.2z M17.7,33.6l2-1.2l0.8,0.5c0.5,0.3,1.1,0.5,1.6,0.5h4.2c0.6,0,1.2-0.2,1.6-0.5l0.8-0.5l2,1.2l0,0.9
		c0,0.6,0.1,1.2,0.4,1.7l2.1,3.7c0.3,0.5,0.7,0.9,1.2,1.2l0.8,0.5v2.3l-0.8,0.5c-0.5,0.3-0.9,0.7-1.2,1.2l-2.1,3.7
		c-0.3,0.5-0.4,1.1-0.4,1.7l0,0.9l-2,1.2l-0.8-0.5C27.6,52.1,27,52,26.4,52h-4.2c-0.6,0-1.2,0.2-1.6,0.5l-0.8,0.5l-2-1.2l0-0.9
		c0-0.6-0.1-1.2-0.4-1.7l-2.1-3.7c-0.3-0.5-0.7-0.9-1.2-1.2l-0.8-0.5v-2.3l0.8-0.5c0.5-0.3,0.9-0.7,1.2-1.2l2.1-3.7
		c0.3-0.5,0.4-1.1,0.4-1.7L17.7,33.6z"/>
	<linearGradient id="SVGID_8_" gradientUnits="userSpaceOnUse" x1="25.3391" y1="1.945" x2="25.3391" y2="101.6791">
		<stop  offset="0" style="stop-color:#EF8117"/>
		<stop  offset="1" style="stop-color:#203971"/>
	</linearGradient>
	<path class="st7" d="M43.9,75.4L43.9,75.4c-1.1-1.1-2.7-1.3-4-0.7l-7.7-12c-1-1.6-2.9-2.4-4.8-2c-2.5,0.5-4.1,2.8-3.6,5.3L25,73
		c0.1,0.5-0.1,0.9-0.5,1.2c-0.4,0.3-0.9,0.3-1.3,0.1c-5.5-2.7-9.5-7.6-10.9-13.6l-1.6-6.5c-0.6-2.5-2.8-4.3-5.4-4.4l-0.1,0
		c-1.4-0.1-2.7,0.5-3.6,1.5c-0.9,1-1.4,2.4-1.3,3.7c1.5,15,10.1,28.3,23.1,35.8c-0.7,1.4-0.5,3.1,0.6,4.2l5.8,5.8
		c0.4,0.4,0.9,0.6,1.5,0.6c0.6,0,1.1-0.2,1.5-0.6l6.5-6.5c0.4-0.4,0.6-0.9,0.6-1.5s-0.2-1.1-0.6-1.5C39,91.2,38.4,91,37.9,91
		c-0.6,0-1.1,0.2-1.5,0.6l-5,5l-3.9-3.9l13.9-13.9l3.9,3.9l-4.8,4.8c-0.4,0.4-0.6,0.9-0.6,1.5c0,0.6,0.2,1.1,0.6,1.5
		c0.4,0.4,0.9,0.6,1.5,0.6c0,0,0,0,0,0c0.6,0,1.1-0.2,1.5-0.6l6.3-6.3c0.4-0.4,0.6-0.9,0.6-1.5c0-0.6-0.2-1.1-0.6-1.5L43.9,75.4z
		 M4.5,54.8c0-0.2,0.1-0.4,0.1-0.4c0.1-0.1,0.2-0.2,0.4-0.2c0,0,0,0,0,0c0,0,0,0,0.1,0c0,0,0,0,0,0v0c0.7,0,1.3,0.5,1.4,1.1l1.6,6.5
		C9.9,69,14.7,75,21.3,78.2c1.9,0.9,4.1,0.7,5.7-0.5c1.7-1.3,2.5-3.3,2.1-5.4l-1.2-7.1c0-0.2,0.1-0.4,0.3-0.5c0.2,0,0.3,0,0.4,0.2
		l8.1,12.6L26.4,87.9C21.4,85.2,6.5,75.4,4.5,54.8L4.5,54.8z"/>
</g>
</svg>
