<?xml version="1.0" encoding="utf-8"?>
<!-- Generator: Adobe Illustrator 21.0.0, SVG Export Plug-In . SVG Version: 6.00 Build 0)  -->
<svg version="1.1" id="Capa_1" xmlns="http://www.w3.org/2000/svg" xmlns:xlink="http://www.w3.org/1999/xlink" x="0px" y="0px"
	 viewBox="0 0 102 102" style="enable-background:new 0 0 102 102;" xml:space="preserve">
<style type="text/css">
	.st0{fill:url(#SVGID_1_);}
	.st1{fill:url(#SVGID_2_);}
	.st2{fill:url(#SVGID_3_);}
	.st3{fill:url(#SVGID_4_);}
	.st4{fill:url(#SVGID_5_);}
</style>
<g>
	<linearGradient id="SVGID_1_" gradientUnits="userSpaceOnUse" x1="51.0065" y1="0.6117" x2="51.0065" y2="101.2789">
		<stop  offset="0" style="stop-color:#F08217"/>
		<stop  offset="1" style="stop-color:#203971"/>
	</linearGradient>
	<path class="st0" d="M81,44c-0.3,0-0.5,0-0.8,0l-8.6-11.5c3.5-3.2,5.8-7.6,6-12.6L88.1,25c-0.3,0.7-0.4,1.5-0.4,2.3
		c0,3.7,3,6.7,6.7,6.7c3.7,0,6.7-3,6.7-6.7s-3-6.7-6.7-6.7c-1.6,0-3.1,0.6-4.3,1.6l-12.6-6.1c-1.4-8.8-9-15.5-18.1-15.5
		c-9.8,0-17.9,7.8-18.3,17.5l-9.9,8.5c-2.8-2.4-6.3-3.9-10.2-4.3v-8.6c2.9-0.7,5-3.3,5-6.5c0-3.7-3-6.7-6.7-6.7s-6.7,3-6.7,6.7
		c0,3.1,2.1,5.7,5,6.5v8.6C8.3,23.2,1,31.1,1,40.6c0,6.7,3.7,12.6,9.1,15.8c0,0,0,0,0.1,0c0,0,0.1,0,0.1,0.1
		c0.2,0.1,0.5,0.3,0.7,0.4c0.2,0.1,0.4,0.2,0.7,0.3c0.4,0.2,0.7,0.3,1.1,0.5c0.3,0.1,0.5,0.2,0.8,0.3c0.2,0.1,0.5,0.2,0.7,0.2
		c0.3,0.1,0.6,0.2,0.9,0.2c0.2,0,0.4,0.1,0.6,0.1c0.5,0.1,1,0.2,1.4,0.2c0.2,0,0.3,0,0.5,0c0.5,0,1.1,0.1,1.6,0.1s1.1,0,1.6-0.1
		c0.2,0,0.3,0,0.5,0c0.5-0.1,1-0.1,1.4-0.2c0.2,0,0.4-0.1,0.6-0.1c0.3-0.1,0.6-0.1,0.9-0.2c0.2-0.1,0.5-0.1,0.7-0.2
		c0.3-0.1,0.5-0.2,0.8-0.3c0.4-0.1,0.7-0.3,1.1-0.5c0.2-0.1,0.4-0.2,0.7-0.3c0.2-0.1,0.5-0.2,0.7-0.4c0,0,0.1,0,0.1-0.1
		c0,0,0,0,0.1,0c4.6-2.7,7.9-7.3,8.8-12.6l7.5,5.9c-0.3,0.8-0.5,1.7-0.5,2.6c0,3.7,3,6.7,6.7,6.7s6.7-3,6.7-6.7s-3-6.7-6.7-6.7
		c-1.5,0-2.9,0.5-4.1,1.4l-9.3-7.3c-0.2-4.1-1.7-7.8-4.1-10.8l7.8-6.7c1,5.3,4.3,9.8,8.8,12.5c0,0,0,0,0.1,0c0,0,0.1,0,0.1,0.1
		c0.2,0.1,0.5,0.3,0.7,0.4c0.2,0.1,0.4,0.2,0.7,0.3c0.4,0.2,0.7,0.3,1.1,0.5c0.3,0.1,0.5,0.2,0.8,0.3c0.2,0.1,0.5,0.2,0.7,0.2
		c0.3,0.1,0.6,0.2,0.9,0.2c0.2,0,0.4,0.1,0.6,0.1c0.5,0.1,1,0.2,1.4,0.2c0.2,0,0.3,0,0.5,0c0.5,0,1.1,0.1,1.6,0.1s1.1,0,1.6-0.1
		c0.2,0,0.3,0,0.5,0c0.5-0.1,1-0.1,1.4-0.2c0.2,0,0.4-0.1,0.6-0.1c0.3-0.1,0.6-0.1,0.9-0.2c0.2-0.1,0.5-0.1,0.7-0.2
		c0.3-0.1,0.5-0.2,0.8-0.3c0.4-0.1,0.7-0.3,1.1-0.5c0.2-0.1,0.4-0.2,0.7-0.3c0.2-0.1,0.5-0.2,0.7-0.4c0,0,0.1,0,0.1-0.1
		c0,0,0,0,0.1,0c0.1-0.1,0.2-0.2,0.4-0.2l7.5,10c-7.9,2-13.8,9.2-13.8,17.8c0,2.1,0.4,4.1,1,5.9l-6.7,5.1C53.8,67.8,47.8,64,41,64
		c-9.6,0-17.4,7.3-18.3,16.7h-8.6c-0.7-2.9-3.3-5-6.5-5c-3.7,0-6.7,3-6.7,6.7S4,89,7.6,89c3.1,0,5.7-2.1,6.5-5h8.6
		c0.5,6,4,11.2,9,14.2c0,0,0,0,0.1,0c0,0,0.1,0,0.1,0.1c0.2,0.1,0.5,0.3,0.7,0.4c0.2,0.1,0.4,0.2,0.7,0.3c0.4,0.2,0.7,0.3,1.1,0.5
		c0.3,0.1,0.5,0.2,0.8,0.3c0.2,0.1,0.5,0.2,0.7,0.2c0.3,0.1,0.6,0.2,0.9,0.2c0.2,0,0.4,0.1,0.6,0.1c0.5,0.1,1,0.2,1.4,0.2
		c0.2,0,0.3,0,0.5,0c0.5,0,1.1,0.1,1.6,0.1s1.1,0,1.6-0.1c0.2,0,0.3,0,0.5,0c0.5-0.1,1-0.1,1.4-0.2c0.2,0,0.4-0.1,0.6-0.1
		c0.3-0.1,0.6-0.1,0.9-0.2c0.2-0.1,0.5-0.1,0.7-0.2c0.3-0.1,0.5-0.2,0.8-0.3c0.4-0.1,0.7-0.3,1.1-0.5c0.2-0.1,0.4-0.2,0.7-0.3
		c0.2-0.1,0.5-0.2,0.7-0.4c0,0,0.1,0,0.1-0.1c0,0,0,0,0.1,0c4.3-2.5,7.5-6.7,8.6-11.7l10.9,5.3c-0.3,0.7-0.4,1.5-0.4,2.3
		c0,3.7,3,6.7,6.7,6.7s6.7-3,6.7-6.7s-3-6.7-6.7-6.7c-1.6,0-3.1,0.6-4.3,1.6l-12.4-6c0-0.2,0-0.4,0-0.6c0-2.1-0.4-4.1-1-5.9l6.7-5.1
		c1.6,2.8,3.9,5.2,6.7,6.8c0,0,0,0,0.1,0c0,0,0.1,0,0.1,0.1c0.2,0.1,0.5,0.3,0.7,0.4c0.2,0.1,0.4,0.2,0.7,0.3
		c0.4,0.2,0.7,0.3,1.1,0.5c0.3,0.1,0.5,0.2,0.8,0.3c0.2,0.1,0.5,0.2,0.7,0.2c0.3,0.1,0.6,0.2,0.9,0.2c0.2,0,0.4,0.1,0.6,0.1
		c0.5,0.1,1,0.2,1.4,0.2c0.2,0,0.3,0,0.5,0c0.5,0,1.1,0.1,1.6,0.1s1.1,0,1.6-0.1c0.2,0,0.3,0,0.5,0c0.5-0.1,1-0.1,1.4-0.2
		c0.2,0,0.4-0.1,0.6-0.1c0.3-0.1,0.6-0.1,0.9-0.2c0.2-0.1,0.5-0.1,0.7-0.2c0.3-0.1,0.5-0.2,0.8-0.3c0.4-0.1,0.7-0.3,1.1-0.5
		c0.2-0.1,0.4-0.2,0.7-0.3c0.2-0.1,0.5-0.2,0.7-0.4c0,0,0.1,0,0.1-0.1c0,0,0,0,0.1,0c5.4-3.2,9.1-9.1,9.1-15.8
		C99.4,52.2,91.1,44,81,44z M65.9,32.4c-0.5,0.2-0.9,0.4-1.4,0.6c0,0-0.1,0-0.1,0.1c-3.2,1.1-6.8,1.1-10,0c0,0-0.1,0-0.1-0.1
		c-0.5-0.2-0.9-0.4-1.4-0.6c0,0-0.1,0-0.1-0.1V29c0-0.9,0.8-1.7,1.8-1.7h9.7c1,0,1.8,0.8,1.8,1.7v3.4C66,32.4,65.9,32.4,65.9,32.4z
		 M97.7,27.3c0,1.8-1.5,3.3-3.3,3.3c-1.8,0-3.3-1.5-3.3-3.3c0-1.8,1.5-3.3,3.3-3.3C96.2,24,97.7,25.5,97.7,27.3z M16,7.3
		c0-1.8,1.5-3.3,3.3-3.3c1.8,0,3.3,1.5,3.3,3.3c0,1.8-1.5,3.3-3.3,3.3C17.5,10.6,16,9.1,16,7.3z M26,54.1c0,0-0.1,0-0.1,0.1
		c-0.5,0.2-0.9,0.4-1.4,0.6c0,0-0.1,0-0.1,0.1c-3.2,1.1-6.8,1.1-10,0c0,0-0.1,0-0.1-0.1c-0.5-0.2-0.9-0.4-1.4-0.6c0,0-0.1,0-0.1-0.1
		v-3.4c0-0.9,0.8-1.7,1.8-1.7h9.7c1,0,1.8,0.8,1.8,1.7V54.1z M54.3,52.3c0,1.8-1.5,3.3-3.3,3.3c-1.8,0-3.3-1.5-3.3-3.3
		c0-1.8,1.5-3.3,3.3-3.3C52.8,49,54.3,50.5,54.3,52.3z M29.3,51.8v-1.1c0-2.8-2.3-5-5.2-5h-9.7c-2.9,0-5.2,2.3-5.2,5v1.1
		c-3.1-2.8-5-6.7-5-11.2c0-8.3,6.7-15,15-15s15,6.7,15,15C34.3,45.1,32.4,49,29.3,51.8z M44.3,19c0-8.3,6.7-15,15-15
		c8.3,0,15,6.7,15,15c0,4.4-1.9,8.4-5,11.2V29c0-2.8-2.3-5-5.2-5h-9.7c-2.9,0-5.2,2.3-5.2,5v1.1C46.3,27.4,44.3,23.4,44.3,19z
		 M79.4,94c0,1.8-1.5,3.3-3.3,3.3s-3.3-1.5-3.3-3.3c0-1.8,1.5-3.3,3.3-3.3S79.4,92.2,79.4,94z M7.6,85.7c-1.8,0-3.3-1.5-3.3-3.3
		c0-1.8,1.5-3.3,3.3-3.3c1.8,0,3.3,1.5,3.3,3.3C11,84.2,9.5,85.7,7.6,85.7z M47.7,95.8c0,0-0.1,0-0.1,0.1c-0.5,0.2-0.9,0.4-1.4,0.6
		c0,0-0.1,0-0.1,0.1c-3.2,1.1-6.8,1.1-10,0c0,0-0.1,0-0.1-0.1c-0.5-0.2-0.9-0.4-1.4-0.6c0,0-0.1,0-0.1-0.1v-3.4
		c0-0.9,0.8-1.7,1.8-1.7h9.7c1,0,1.8,0.8,1.8,1.7V95.8z M51,93.5v-1.1c0-2.8-2.3-5-5.2-5h-9.7c-2.9,0-5.2,2.3-5.2,5v1.1
		c-3.1-2.8-5-6.7-5-11.2c0-8.3,6.7-15,15-15s15,6.7,15,15C56,86.8,54.1,90.7,51,93.5z M87.7,75.8c0,0-0.1,0-0.1,0.1
		c-0.5,0.2-0.9,0.4-1.4,0.6c0,0-0.1,0-0.1,0.1c-3.2,1.1-6.8,1.1-10,0c0,0-0.1,0-0.1-0.1c-0.5-0.2-0.9-0.4-1.4-0.6c0,0-0.1,0-0.1-0.1
		v-3.4c0-0.9,0.8-1.7,1.8-1.7h9.7c1,0,1.8,0.8,1.8,1.7V75.8z M91,73.5v-1.1c0-2.8-2.3-5-5.2-5h-9.7c-2.9,0-5.2,2.3-5.2,5v1.1
		c-3.1-2.8-5-6.7-5-11.2c0-8.3,6.7-15,15-15c8.3,0,15,6.7,15,15C96,66.8,94.1,70.7,91,73.5z"/>
	<linearGradient id="SVGID_2_" gradientUnits="userSpaceOnUse" x1="81.0287" y1="0.6117" x2="81.0287" y2="101.2789">
		<stop  offset="0" style="stop-color:#F08217"/>
		<stop  offset="1" style="stop-color:#203971"/>
	</linearGradient>
	<path class="st1" d="M81,50.6c-3.7,0-6.7,3-6.7,6.7s3,6.7,6.7,6.7s6.7-3,6.7-6.7S84.7,50.6,81,50.6z M81,60.7
		c-1.8,0-3.3-1.5-3.3-3.3c0-1.8,1.5-3.3,3.3-3.3c1.8,0,3.3,1.5,3.3,3.3C84.4,59.2,82.9,60.7,81,60.7z"/>
	<linearGradient id="SVGID_3_" gradientUnits="userSpaceOnUse" x1="40.9992" y1="0.6117" x2="40.9992" y2="101.2789">
		<stop  offset="0" style="stop-color:#F08217"/>
		<stop  offset="1" style="stop-color:#203971"/>
	</linearGradient>
	<path class="st2" d="M41,70.7c-3.7,0-6.7,3-6.7,6.7s3,6.7,6.7,6.7s6.7-3,6.7-6.7S44.7,70.7,41,70.7z M41,80.7
		c-1.8,0-3.3-1.5-3.3-3.3c0-1.8,1.5-3.3,3.3-3.3s3.3,1.5,3.3,3.3C44.3,79.2,42.8,80.7,41,80.7z"/>
	<linearGradient id="SVGID_4_" gradientUnits="userSpaceOnUse" x1="19.3165" y1="0.6117" x2="19.3165" y2="101.2789">
		<stop  offset="0" style="stop-color:#F08217"/>
		<stop  offset="1" style="stop-color:#203971"/>
	</linearGradient>
	<path class="st3" d="M19.3,29c-3.7,0-6.7,3-6.7,6.7s3,6.7,6.7,6.7s6.7-3,6.7-6.7S23,29,19.3,29z M19.3,39c-1.8,0-3.3-1.5-3.3-3.3
		c0-1.8,1.5-3.3,3.3-3.3c1.8,0,3.3,1.5,3.3,3.3C22.7,37.5,21.2,39,19.3,39z"/>
	<linearGradient id="SVGID_5_" gradientUnits="userSpaceOnUse" x1="59.3461" y1="0.6117" x2="59.3461" y2="101.2789">
		<stop  offset="0" style="stop-color:#F08217"/>
		<stop  offset="1" style="stop-color:#203971"/>
	</linearGradient>
	<path class="st4" d="M59.3,20.6c3.7,0,6.7-3,6.7-6.7c0-3.7-3-6.7-6.7-6.7c-3.7,0-6.7,3-6.7,6.7C52.7,17.6,55.7,20.6,59.3,20.6z
		 M59.3,10.6c1.8,0,3.3,1.5,3.3,3.3c0,1.8-1.5,3.3-3.3,3.3c-1.8,0-3.3-1.5-3.3-3.3C56,12.1,57.5,10.6,59.3,10.6z"/>
</g>
</svg>
